<svg width="342" height="187" viewBox="0 0 342 187" fill="none" xmlns="http://www.w3.org/2000/svg">
<g filter="url(#filter0_bd_102_1534)">
<mask id="path-1-outside-1_102_1534" maskUnits="userSpaceOnUse" x="15" y="11" width="312" height="157" fill="black">
<rect fill="white" x="15" y="11" width="312" height="157"/>
<path fill-rule="evenodd" clip-rule="evenodd" d="M282.473 59.048C282.619 57.6297 282.694 56.1903 282.694 54.7334C282.694 31.6847 263.956 13 240.841 13C218.896 13 200.896 29.8416 199.13 51.27C196.086 51.305 193.166 51.8529 190.452 52.8311C179.063 30.3835 155.762 15 128.868 15C92.6809 15 62.999 42.8508 60.0878 78.2867C36.2441 78.5617 17 97.9758 17 121.885C17 145.882 36.3863 165.351 60.3518 165.485V165.486H60.5641L60.601 165.486L60.6379 165.486H225.288C248.68 165.486 267.643 146.523 267.643 123.13C267.643 116.247 266.001 109.746 263.087 104H299.314C313.5 104 325 92.5329 325 78.3874C325 64.242 313.5 52.7748 299.314 52.7748C292.871 52.7748 286.982 55.1404 282.473 59.048Z"/>
</mask>
<path fill-rule="evenodd" clip-rule="evenodd" d="M282.473 59.048C282.619 57.6297 282.694 56.1903 282.694 54.7334C282.694 31.6847 263.956 13 240.841 13C218.896 13 200.896 29.8416 199.13 51.27C196.086 51.305 193.166 51.8529 190.452 52.8311C179.063 30.3835 155.762 15 128.868 15C92.6809 15 62.999 42.8508 60.0878 78.2867C36.2441 78.5617 17 97.9758 17 121.885C17 145.882 36.3863 165.351 60.3518 165.485V165.486H60.5641L60.601 165.486L60.6379 165.486H225.288C248.68 165.486 267.643 146.523 267.643 123.13C267.643 116.247 266.001 109.746 263.087 104H299.314C313.5 104 325 92.5329 325 78.3874C325 64.242 313.5 52.7748 299.314 52.7748C292.871 52.7748 286.982 55.1404 282.473 59.048Z" fill="url(#paint0_linear_102_1534)" shape-rendering="crispEdges"/>
<path d="M282.473 59.048L280.483 58.8431L279.966 63.867L283.783 60.5594L282.473 59.048ZM199.13 51.27L199.153 53.2699L200.974 53.2489L201.123 51.4342L199.13 51.27ZM190.452 52.8311L188.668 53.736L189.468 55.3118L191.13 54.7126L190.452 52.8311ZM60.0878 78.2867L60.1109 80.2865L61.932 80.2655L62.0811 78.4504L60.0878 78.2867ZM60.3518 165.485H62.3518V163.496L60.363 163.485L60.3518 165.485ZM60.3518 165.486H58.3518V167.486H60.3518V165.486ZM60.5641 165.486L60.5649 163.486H60.5641V165.486ZM60.601 165.486L60.6002 167.486L60.6018 167.486L60.601 165.486ZM60.6379 165.486L60.6379 163.486L60.637 163.486L60.6379 165.486ZM263.087 104V102H259.83L261.303 104.905L263.087 104ZM280.694 54.7334C280.694 56.1217 280.623 57.4927 280.483 58.8431L284.462 59.2529C284.615 57.7666 284.694 56.2588 284.694 54.7334H280.694ZM240.841 15C262.856 15 280.694 32.7947 280.694 54.7334H284.694C284.694 30.5747 265.055 11 240.841 11V15ZM201.123 51.4342C202.804 31.0394 219.941 15 240.841 15V11C217.851 11 198.987 28.6439 197.137 51.1058L201.123 51.4342ZM191.13 54.7126C193.637 53.8092 196.336 53.3023 199.153 53.2699L199.107 49.2701C195.837 49.3077 192.695 49.8967 189.774 50.9496L191.13 54.7126ZM128.868 17C154.98 17 177.607 31.934 188.668 53.736L192.235 51.9262C180.519 28.833 156.544 13 128.868 13V17ZM62.0811 78.4504C64.9077 44.0436 93.7306 17 128.868 17V13C91.6312 13 61.0902 41.6581 58.0945 78.1229L62.0811 78.4504ZM19 121.885C19 99.0727 37.3614 80.5489 60.1109 80.2865L60.0647 76.2868C35.1268 76.5744 15 96.879 15 121.885H19ZM60.363 163.485C37.4971 163.357 19 144.781 19 121.885H15C15 146.983 35.2756 167.345 60.3407 167.485L60.363 163.485ZM62.3518 165.486V165.485H58.3518V165.486H62.3518ZM60.5641 163.486H60.3518V167.486H60.5641V163.486ZM60.6018 163.486L60.5649 163.486L60.5633 167.486L60.6002 167.486L60.6018 163.486ZM60.637 163.486L60.6002 163.486L60.6018 167.486L60.6387 167.486L60.637 163.486ZM225.288 163.486H60.6379V167.486H225.288V163.486ZM265.643 123.13C265.643 145.418 247.576 163.486 225.288 163.486V167.486C249.785 167.486 269.643 147.627 269.643 123.13H265.643ZM261.303 104.905C264.079 110.377 265.643 116.568 265.643 123.13H269.643C269.643 115.925 267.924 109.116 264.871 103.095L261.303 104.905ZM299.314 102H263.087V106H299.314V102ZM323 78.3874C323 91.4229 312.401 102 299.314 102V106C314.599 106 327 93.6428 327 78.3874H323ZM299.314 54.7748C312.401 54.7748 323 65.3519 323 78.3874H327C327 63.132 314.599 50.7748 299.314 50.7748V54.7748ZM283.783 60.5594C287.942 56.9553 293.37 54.7748 299.314 54.7748V50.7748C292.372 50.7748 286.022 53.3254 281.163 57.5366L283.783 60.5594Z" fill="url(#paint1_linear_102_1534)" mask="url(#path-1-outside-1_102_1534)"/>
</g>
<defs>
<filter id="filter0_bd_102_1534" x="0" y="0" width="342" height="186.486" filterUnits="userSpaceOnUse" color-interpolation-filters="sRGB">
<feFlood flood-opacity="0" result="BackgroundImageFix"/>
<feGaussianBlur in="BackgroundImageFix" stdDeviation="5"/>
<feComposite in2="SourceAlpha" operator="in" result="effect1_backgroundBlur_102_1534"/>
<feColorMatrix in="SourceAlpha" type="matrix" values="0 0 0 0 0 0 0 0 0 0 0 0 0 0 0 0 0 0 127 0" result="hardAlpha"/>
<feOffset dy="4"/>
<feGaussianBlur stdDeviation="7.5"/>
<feComposite in2="hardAlpha" operator="out"/>
<feColorMatrix type="matrix" values="0 0 0 0 0 0 0 0 0 0 0 0 0 0 0 0 0 0 0.1 0"/>
<feBlend mode="normal" in2="effect1_backgroundBlur_102_1534" result="effect2_dropShadow_102_1534"/>
<feBlend mode="normal" in="SourceGraphic" in2="effect2_dropShadow_102_1534" result="shape"/>
</filter>
<linearGradient id="paint0_linear_102_1534" x1="94.9027" y1="14.3724" x2="155.193" y2="166.113" gradientUnits="userSpaceOnUse">
<stop stop-color="white"/>
<stop offset="0.708333" stop-color="#9DDCFF" stop-opacity="0.69"/>
</linearGradient>
<linearGradient id="paint1_linear_102_1534" x1="134.193" y1="-37.1111" x2="217.515" y2="227.081" gradientUnits="userSpaceOnUse">
<stop stop-color="white"/>
<stop offset="0.713542" stop-color="#85C6EC" stop-opacity="0.71"/>
</linearGradient>
</defs>
</svg>
